<svg width="50" height="50" viewBox="0 0 50 50" fill="none" xmlns="http://www.w3.org/2000/svg">
<circle cx="25" cy="25" r="25" fill="#FC5055"/>
<path fill-rule="evenodd" clip-rule="evenodd" d="M30.4577 32.0945C29.8372 32.2578 28.8903 32.6496 28.3353 32.9762L26.0821 34.2498C25.527 34.5436 24.6127 34.5436 24.0575 34.2498L21.8043 32.9762C21.2492 32.6824 20.3021 32.2578 19.6819 32.0945L18.1797 31.6699L15.6001 38.2661L20.1391 36.8621L22.9473 40.356L24.7759 35.3925L27.8455 40.356L30.2946 36.5029L34.5069 36.8621L31.4373 31.8334L30.4577 32.0945Z" fill="white"/>
<path d="M35.9761 21.1553L34.8333 19.1308C34.5721 18.6411 34.2128 17.7919 34.0496 17.2368L33.3965 15.0165C33.2332 14.4614 32.6781 13.9063 32.123 13.7429L29.9026 13.0899C29.3473 12.9266 28.4984 12.5674 28.0084 12.3061L25.9839 11.1959C25.4942 10.9347 24.6778 10.9347 24.1879 11.1959L22.1308 12.3061C21.6411 12.5674 20.7919 12.9266 20.2368 13.0899L18.0165 13.7429C17.4614 13.9063 16.9063 14.4613 16.7429 15.0165L16.0899 17.2368C15.9266 17.7919 15.5674 18.6409 15.3061 19.1308L14.1959 21.1553C13.9347 21.645 13.9347 22.4614 14.1959 22.9514L15.3061 24.9759C15.5674 25.4656 15.9266 26.3148 16.0899 26.8698L16.7429 29.0902C16.9063 29.6453 17.4613 30.2004 18.0165 30.3638L20.2368 31.0168C20.7919 31.1801 21.6409 31.5393 22.1308 31.8005L24.1553 32.9107C24.645 33.172 25.4614 33.172 25.9514 32.9107L27.9759 31.8005C28.4656 31.5393 29.3148 31.1801 29.8698 31.0168L32.0902 30.3638C32.6453 30.2004 33.2004 29.6454 33.3638 29.0902L34.0168 26.8698C34.1801 26.3147 34.5393 25.4658 34.8005 24.9759L35.9107 22.9514C36.2374 22.4616 36.2374 21.6778 35.9761 21.1553H35.9761ZM32.776 22.7229L31.9923 24.1598C31.7964 24.519 31.5351 25.1066 31.4372 25.4986L30.9474 27.0658C30.8495 27.4576 30.4249 27.8495 30.0331 27.9801L28.4658 28.4372C28.074 28.5352 27.4861 28.7965 27.1269 28.9923L25.7226 29.7761C25.3634 29.972 24.8083 29.972 24.4491 29.7761L23.0122 28.9923C22.653 28.7964 22.0654 28.5352 21.6734 28.4372L20.0734 27.9475C19.6816 27.8496 19.2896 27.425 19.1591 27.0332L18.7019 25.4658C18.604 25.0741 18.3427 24.4861 18.1468 24.127L17.3631 22.7229C17.1672 22.3637 17.1672 21.8086 17.3631 21.4494L18.1468 20.0126C18.3427 19.6533 18.604 19.0657 18.7019 18.6737L19.1591 17.1063C19.257 16.7145 19.6816 16.3225 20.0734 16.192L21.6408 15.7348C22.0325 15.6369 22.6204 15.3756 22.9796 15.1797L24.4165 14.396C24.7757 14.2001 25.3308 14.2001 25.69 14.396L27.1269 15.1797C27.4861 15.3756 28.0737 15.6369 28.4658 15.7348L30.0331 16.192C30.4249 16.2899 30.8169 16.7145 30.9474 17.1063L31.4046 18.6737C31.5025 19.0654 31.7638 19.6534 31.9597 20.0126L32.7435 21.4494C32.9393 21.7758 32.9393 22.3637 32.776 22.7229L32.776 22.7229Z" fill="white"/>
</svg>
