<svg width="40" height="40" viewBox="0 0 40 40" fill="none" xmlns="http://www.w3.org/2000/svg">
<path d="M19.9988 30C19.5391 29.9995 19.0869 29.8902 18.684 29.6822L11.4118 25.9269C10.9845 25.7058 10.6281 25.3811 10.3798 24.9868C10.1315 24.5925 10.0003 24.1428 10 23.6847V16.3162C9.99917 15.8576 10.1298 15.4072 10.3782 15.0123C10.6266 14.6174 10.9837 14.2926 11.4118 14.0719L18.6852 10.3176C19.0877 10.1093 19.5398 10 19.9994 10C20.459 10 20.9111 10.1093 21.3136 10.3176L28.5799 14.073C29.0094 14.2926 29.368 14.6168 29.6179 15.0116C29.8678 15.4063 29.9998 15.857 30 16.3162V23.6836C30.0001 24.1422 29.869 24.5925 29.6204 24.9872C29.3719 25.382 29.015 25.7069 28.587 25.928L21.3136 29.6833C20.9107 29.891 20.4585 29.9999 19.9988 30ZM28.1799 16.3873L20.9077 20.4838V27.9457L27.7089 24.4336C27.852 24.3601 27.9715 24.2518 28.0548 24.12C28.1381 23.9883 28.1821 23.8379 28.1823 23.6847V16.3873H28.1799ZM11.8178 16.3873V23.6836C11.8179 23.8368 11.8619 23.9872 11.9452 24.1189C12.0285 24.2507 12.148 24.359 12.2911 24.4325L19.0923 27.9445V20.4838L11.8178 16.3873ZM19.9988 11.7075C19.8452 11.7093 19.6946 11.7475 19.561 11.8186L13.1278 15.1351L19.9988 19.0005L26.8698 15.1307L20.4367 11.8131C20.3025 11.7439 20.1519 11.7076 19.9988 11.7075Z" fill="#AFAFAF"/>
</svg>
