<svg width="20" height="22" viewBox="0 0 20 22" fill="none" xmlns="http://www.w3.org/2000/svg">
<path d="M0.272951 20.8119C0.454659 21.0036 0.727376 21.0996 0.909395 21.0996C1.0911 21.0996 1.36382 21.0036 1.54584 20.8119L10.0001 11.8924L18.4543 20.8119C18.636 21.0036 18.9087 21.0996 19.0908 21.0996C19.2725 21.0996 19.5452 21.0036 19.7272 20.8119C20.0909 20.4281 20.0909 19.8527 19.7272 19.4693L11.2722 10.5498L19.7264 1.63041C20.0902 1.24666 20.0902 0.671218 19.7264 0.287806C19.3627 -0.0959352 18.8173 -0.0959352 18.4538 0.287806L9.99961 9.20723L1.54537 0.287806C1.18165 -0.0959352 0.636211 -0.0959352 0.272795 0.287806C-0.0909317 0.671547 -0.0909317 1.24699 0.272795 1.63041L8.72703 10.5498L0.272795 19.4693C-0.0909317 19.853 -0.0909317 20.4285 0.272795 20.8119H0.272951Z" fill="black"/>
</svg>
