<svg width="17" height="15" viewBox="0 0 17 15" fill="none" xmlns="http://www.w3.org/2000/svg">
<path d="M3.03572 0C2.70043 0 2.42857 0.335824 2.42857 0.75V3H0.607145C0.446145 3 0.291646 3.07902 0.177808 3.21964C0.0639707 3.36027 2.13409e-06 3.55112 2.13409e-06 3.75V12.75C2.13409e-06 13.9835 0.822906 15 1.82143 15H15.1786C16.1771 15 17 13.9835 17 12.75V0.75C17 0.335824 16.7281 0 16.3929 0H3.03572ZM6.07969 3.75H7.27732C8.09832 3.7356 8.09832 5.2644 7.27732 5.25H6.07969C5.74481 5.25603 5.4697 4.92556 5.46429 4.50737C5.45888 4.08918 5.7375 3.744 6.07969 3.75ZM9.72254 3.75H13.3487C13.6911 3.74397 13.9695 4.08918 13.9641 4.50737C13.9587 4.92556 13.6836 5.2557 13.3487 5.25H9.72254C8.90155 5.2644 8.90155 3.7356 9.72254 3.75ZM1.21422 4.5H2.4285V12.75C2.4285 13.1784 2.16816 13.5 1.82136 13.5C1.47456 13.5 1.21422 13.1784 1.21422 12.75V4.5ZM6.08558 6.75H13.3429C13.6882 6.74397 13.9695 7.08918 13.9642 7.50737C13.9588 7.92556 13.6807 8.2557 13.3429 8.25H6.08558C5.25713 8.2644 5.25713 6.7356 6.08558 6.75ZM6.08558 9.75H13.3429C13.6882 9.74397 13.9695 10.0892 13.9642 10.5074C13.9588 10.9256 13.6807 11.2557 13.3429 11.25H6.08558C5.25713 11.2644 5.25713 9.7356 6.08558 9.75Z" fill="#939DB7"/>
</svg>
