<svg width="40" height="40" viewBox="0 0 40 40" fill="none" xmlns="http://www.w3.org/2000/svg">
<path d="M25.0005 30H15.0008C14.338 29.9991 13.7026 29.7051 13.234 29.1826C12.7653 28.66 12.5017 27.9516 12.5008 27.2126V17.7191L11.324 18.6733C11.182 18.7893 11.0106 18.8518 10.8345 18.8516C10.6584 18.8519 10.4867 18.7898 10.3441 18.6745C10.2015 18.5591 10.0953 18.3964 10.0409 18.2096C9.98639 18.0228 9.98638 17.8216 10.0408 17.6348C10.0953 17.448 10.2014 17.2852 10.344 17.1698L18.527 10.5329C18.9544 10.1866 19.4691 10 19.9975 10C20.5258 10 21.0406 10.1866 21.468 10.5329L29.6562 17.1698C29.7448 17.2415 29.8199 17.3319 29.8772 17.436C29.9344 17.5401 29.9727 17.6557 29.9898 17.7763C30.0069 17.8968 30.0025 18.02 29.9769 18.1386C29.9512 18.2573 29.9049 18.3692 29.8404 18.4679C29.7625 18.5859 29.661 18.682 29.5438 18.7485C29.4266 18.8149 29.2971 18.8498 29.1657 18.8505C28.9896 18.8508 28.8181 18.7883 28.6762 18.6721L27.4994 17.7179V27.2103C27.4991 27.9494 27.2359 28.6583 26.7674 29.1813C26.2989 29.7043 25.6635 29.9988 25.0005 30ZM19.167 19.78H20.8333C21.4959 19.7806 22.1313 20.0743 22.6 20.5967C23.0687 21.119 23.3324 21.8273 23.3332 22.5662V28.141H25.0005C25.2215 28.1407 25.4334 28.0426 25.5897 27.8684C25.746 27.6941 25.8339 27.4579 25.8342 27.2114V16.3682L20.4912 12.034C20.3486 11.9185 20.1769 11.8564 20.0006 11.8564C19.8244 11.8564 19.6527 11.9185 19.5101 12.034L14.1671 16.3682V27.2114C14.1674 27.4579 14.2553 27.6941 14.4116 27.8684C14.5679 28.0426 14.7797 28.1407 15.0008 28.141H16.667V22.5662C16.6679 21.8273 16.9316 21.119 17.4002 20.5967C17.8689 20.0743 18.5043 19.7806 19.167 19.78ZM19.167 21.6379C18.9461 21.6379 18.7342 21.7356 18.5779 21.9097C18.4216 22.0838 18.3336 22.3199 18.3333 22.5662V28.141H21.6669V22.5662C21.6666 22.3199 21.5787 22.0838 21.4224 21.9097C21.2661 21.7356 21.0542 21.6379 20.8333 21.6379H19.167Z" fill="black"/>
</svg>
