<svg width="28" height="28" viewBox="0 0 28 28" fill="none" xmlns="http://www.w3.org/2000/svg">
<path fill-rule="evenodd" clip-rule="evenodd" d="M13.2057 25.6666H7.50533C4.654 25.6666 2.3335 23.3461 2.3335 20.4924V7.50858C2.3335 4.65492 4.654 2.33325 7.50533 2.33325H13.1928C16.0465 2.33325 18.3682 4.65492 18.3682 7.50858V8.59592C18.3682 9.07892 17.9762 9.47092 17.4932 9.47092C17.0102 9.47092 16.6182 9.07892 16.6182 8.59592V7.50858C16.6182 5.61859 15.0817 4.08325 13.1928 4.08325H7.50533C5.61883 4.08325 4.0835 5.61859 4.0835 7.50858V20.4924C4.0835 22.3813 5.61883 23.9166 7.50533 23.9166H13.2057C15.0863 23.9166 16.6182 22.3859 16.6182 20.5053V19.4051C16.6182 18.9221 17.0102 18.5301 17.4932 18.5301C17.9762 18.5301 18.3682 18.9221 18.3682 19.4051V20.5053C18.3682 23.3519 16.0512 25.6666 13.2057 25.6666Z" fill="black"/>
<mask id="mask0_224_958" style="mask-type:alpha" maskUnits="userSpaceOnUse" x="10" y="13" width="17" height="2">
<path fill-rule="evenodd" clip-rule="evenodd" d="M10.4951 13.125H26.2928V14.875H10.4951V13.125Z" fill="white"/>
</mask>
<g mask="url(#mask0_224_958)">
<path fill-rule="evenodd" clip-rule="evenodd" d="M25.418 14.875H11.3701C10.8871 14.875 10.4951 14.483 10.4951 14C10.4951 13.517 10.8871 13.125 11.3701 13.125H25.418C25.901 13.125 26.293 13.517 26.293 14C26.293 14.483 25.901 14.875 25.418 14.875Z" fill="black"/>
</g>
<mask id="mask1_224_958" style="mask-type:alpha" maskUnits="userSpaceOnUse" x="21" y="9" width="6" height="10">
<path fill-rule="evenodd" clip-rule="evenodd" d="M21.1279 9.72437H26.2932V18.2769H21.1279V9.72437Z" fill="white"/>
</mask>
<g mask="url(#mask1_224_958)">
<path fill-rule="evenodd" clip-rule="evenodd" d="M22.0026 18.2769C21.7786 18.2769 21.5535 18.1917 21.3831 18.0191C21.0425 17.6761 21.0436 17.1231 21.3855 16.7824L24.1785 13.9999L21.3855 11.2186C21.0436 10.8779 21.0413 10.3249 21.3831 9.98191C21.7238 9.63891 22.2768 9.63891 22.6198 9.97957L26.0358 13.3804C26.2015 13.5437 26.2936 13.7677 26.2936 13.9999C26.2936 14.2321 26.2015 14.4561 26.0358 14.6194L22.6198 18.0214C22.4495 18.1917 22.2255 18.2769 22.0026 18.2769Z" fill="black"/>
</g>
</svg>
