<svg width="17" height="17" viewBox="0 0 17 17" fill="none" xmlns="http://www.w3.org/2000/svg">
<path d="M10.627 3.20918C9.96975 2.94559 9.25193 2.79945 8.5 2.79945C5.59144 2.79945 3.19155 4.97846 2.84235 7.7926C2.81389 8.02434 2.79853 8.26083 2.79853 8.5007C2.79853 11.6493 5.35154 14.201 8.49955 14.201C11.6489 14.201 14.2006 11.6493 14.2006 8.5007C14.201 6.10376 12.7229 4.05236 10.627 3.20918ZM8.5 0C3.81292 0 0 3.81315 0 8.5C0 13.1869 3.81292 17 8.5 17C13.1871 17 17 13.1869 17 8.5C17 3.81315 13.1871 0 8.5 0ZM8.5 15.7048C4.52715 15.7048 1.29524 12.4727 1.29524 8.5C1.29524 4.52726 4.52726 1.29524 8.5 1.29524C12.4727 1.29524 15.7048 4.52726 15.7048 8.5C15.7048 12.4727 12.4727 15.7048 8.5 15.7048Z" fill="#939DB7"/>
</svg>
