<svg width="50" height="50" viewBox="0 0 50 50" fill="none" xmlns="http://www.w3.org/2000/svg">
<circle cx="25" cy="25" r="25" fill="#FC5055"/>
<path d="M30.6807 36.208L27.3139 36.9134H27.3137C27.122 36.9543 26.9268 36.9764 26.7307 36.9793C25.9829 36.977 25.2662 36.6795 24.7368 36.1516C24.0614 35.4779 23.7745 34.5074 23.9749 33.5747L24.6803 30.2079C24.789 29.6677 25.0577 29.1729 25.4516 28.7877L34.3017 19.9376C34.4598 19.7807 34.6296 19.6361 34.8096 19.5049V14.8214C34.8072 14.0739 34.5094 13.3574 33.9808 12.8288C33.4521 12.3002 32.7357 12.0023 31.9881 12H18.8214C18.0739 12.0023 17.3574 12.3002 16.8288 12.8288C16.3002 13.3574 16.0023 14.0739 16 14.8214V35.5119C16.0023 36.2595 16.3002 36.976 16.8288 37.5046C17.3574 38.0332 18.0739 38.3311 18.8214 38.3334H31.9881C32.7357 38.3311 33.4521 38.0332 33.9808 37.5046C34.5094 36.976 34.8072 36.2595 34.8096 35.5119V32.7281L32.1011 35.4365V35.4368C31.7157 35.8304 31.2209 36.0991 30.6809 36.2078L30.6807 36.208ZM20.7019 15.762H30.1067C30.4428 15.762 30.7533 15.9413 30.9212 16.2323C31.0892 16.5232 31.0892 16.8818 30.9212 17.1727C30.7533 17.4637 30.4428 17.643 30.1067 17.643H20.7019C20.3658 17.643 20.0554 17.4637 19.8874 17.1727C19.7195 16.8818 19.7195 16.5232 19.8874 16.2323C20.0554 15.9413 20.3659 15.762 20.7019 15.762ZM20.7019 19.5239H30.1067C30.4428 19.5239 30.7533 19.7032 30.9212 19.9942C31.0892 20.2851 31.0892 20.6437 30.9212 20.9347C30.7533 21.2256 30.4428 21.4049 30.1067 21.4049H20.7019C20.3658 21.4049 20.0554 21.2256 19.8874 20.9347C19.7195 20.6437 19.7195 20.2851 19.8874 19.9942C20.0554 19.7032 20.3659 19.5239 20.7019 19.5239ZM19.7615 24.2263C19.7615 23.9769 19.8606 23.7376 20.0369 23.5613C20.2132 23.3849 20.4525 23.2858 20.7019 23.2858H24.4639C24.7999 23.2858 25.1104 23.4651 25.2784 23.7561C25.4463 24.0471 25.4463 24.4056 25.2784 24.6966C25.1104 24.9875 24.7999 25.1668 24.4639 25.1668H20.7019C20.4525 25.1668 20.2132 25.0677 20.0369 24.8914C19.8606 24.715 19.7615 24.4757 19.7615 24.2263Z" fill="white"/>
<path d="M39.6265 21.2643C39.0889 20.7512 38.3743 20.4651 37.6312 20.4651C36.8882 20.4651 36.1736 20.7512 35.636 21.2643L26.7767 30.1225C26.648 30.2514 26.5596 30.4147 26.5219 30.5927L25.8146 33.9606C25.7563 34.2379 25.8259 34.5266 26.0046 34.7468C26.183 34.9668 26.4511 35.0947 26.7345 35.0949C26.7996 35.0949 26.8645 35.0879 26.9283 35.0741L30.2962 34.366H30.296C30.4742 34.3284 30.6375 34.2398 30.7662 34.1111L39.6244 25.2534H39.6246C40.1539 24.7244 40.4511 24.0067 40.4511 23.2583C40.4511 22.5099 40.1539 21.7922 39.6246 21.2631L39.6265 21.2643Z" fill="white"/>
</svg>
