<svg width="17" height="17" viewBox="0 0 17 17" fill="none" xmlns="http://www.w3.org/2000/svg">
<path d="M8.50002 0.000218023C3.815 0.000218023 0 3.40228 0 7.58862C0 9.66063 0.921147 11.5948 2.58837 13.0413C2.80876 13.2268 2.88231 13.5129 2.79186 13.7674L1.85934 16.2951C1.78024 16.5124 1.85934 16.7509 2.05147 16.8887C2.15315 16.9629 2.27186 17 2.39625 17C2.5036 17 2.61664 16.9682 2.71277 16.9099L5.71949 15.0075C5.88903 14.9015 6.08116 14.8644 6.2507 14.9068C6.97973 15.087 7.73701 15.1771 8.49998 15.1771C13.185 15.1771 17 11.7696 17 7.58871C17 3.40237 13.1853 0 8.49998 0L8.50002 0.000218023ZM4.54389 8.64846C3.91653 8.64846 3.41357 8.17153 3.41357 7.58862C3.41357 7.00572 3.91653 6.52879 4.54389 6.52879C5.16557 6.52879 5.67421 7.00572 5.67421 7.58862C5.67421 8.17153 5.16557 8.64846 4.54389 8.64846ZM8.50002 8.64846C7.87266 8.64846 7.3697 8.17153 7.3697 7.58862C7.3697 7.00572 7.87266 6.52879 8.50002 6.52879C9.1217 6.52879 9.63034 7.00572 9.63034 7.58862C9.63034 8.17153 9.1217 8.64846 8.50002 8.64846ZM12.4561 8.64846C11.8288 8.64846 11.3258 8.17153 11.3258 7.58862C11.3258 7.00572 11.8288 6.52879 12.4561 6.52879C13.0778 6.52879 13.5865 7.00572 13.5865 7.58862C13.5865 8.17153 13.0778 8.64846 12.4561 8.64846Z" fill="#939DB7"/>
</svg>
