<svg width="18" height="19" viewBox="0 0 18 19" fill="none" xmlns="http://www.w3.org/2000/svg">
<mask id="mask0_131_216" style="mask-type:alpha" maskUnits="userSpaceOnUse" x="1" y="2" width="16" height="15">
<path fill-rule="evenodd" clip-rule="evenodd" d="M1.5 2H16.1076V16.6077H1.5V2Z" fill="white"/>
</mask>
<g mask="url(#mask0_131_216)">
<path fill-rule="evenodd" clip-rule="evenodd" d="M8.80401 3.125C5.39676 3.125 2.62476 5.89625 2.62476 9.3035C2.62476 12.7108 5.39676 15.4827 8.80401 15.4827C12.2105 15.4827 14.9825 12.7108 14.9825 9.3035C14.9825 5.89625 12.2105 3.125 8.80401 3.125ZM8.80401 16.6077C4.77651 16.6077 1.49976 13.331 1.49976 9.3035C1.49976 5.276 4.77651 2 8.80401 2C12.8315 2 16.1075 5.276 16.1075 9.3035C16.1075 13.331 12.8315 16.6077 8.80401 16.6077Z" fill="#939DB7"/>
</g>
<mask id="mask1_131_216" style="mask-type:alpha" maskUnits="userSpaceOnUse" x="12" y="13" width="5" height="5">
<path fill-rule="evenodd" clip-rule="evenodd" d="M12.9299 13.7803H16.698V17.5413H12.9299V13.7803Z" fill="white"/>
</mask>
<g mask="url(#mask1_131_216)">
<path fill-rule="evenodd" clip-rule="evenodd" d="M16.1356 17.5413C15.9924 17.5413 15.8484 17.4866 15.7381 17.3771L13.0951 14.7416C12.8754 14.5218 12.8746 14.1656 13.0944 13.9458C13.3134 13.7246 13.6696 13.7261 13.8901 13.9443L16.5331 16.5806C16.7529 16.8003 16.7536 17.1558 16.5339 17.3756C16.4244 17.4866 16.2796 17.5413 16.1356 17.5413Z" fill="#939DB7"/>
</g>
</svg>
