<svg width="17" height="17" viewBox="0 0 17 17" fill="none" xmlns="http://www.w3.org/2000/svg">
<path d="M9.0878 12.1925L7.91372 12.2037L7.90309 10.5508H8.49983H9.0878L9.0878 12.1925ZM6.49703 10.5023C4.72633 10.4196 2.96265 10.2173 1.21649 9.89673C1.13398 9.88308 1.04998 9.90804 0.986371 9.96497C0.922757 10.0219 0.885946 10.1051 0.88533 10.193V14.7547C0.88533 15.3486 1.10891 15.9183 1.50727 16.3392C1.90551 16.76 2.44593 16.9977 3.01029 17H13.9894C14.5538 16.9977 15.0942 16.7599 15.4924 16.3392C15.8908 15.9183 16.1143 15.3486 16.1143 14.7547V10.193C16.114 10.1039 16.0764 10.0197 16.0116 9.9625C15.9467 9.90544 15.8611 9.88127 15.7779 9.89673C14.0317 10.2166 12.2678 10.4184 10.4973 10.5005V10.5135V12.2017C10.4973 12.5941 10.3492 12.9704 10.0855 13.2479C9.82181 13.5254 9.46422 13.6813 9.09131 13.6813H7.90315C7.53023 13.6813 7.17262 13.5254 6.90892 13.2479C6.64523 12.9704 6.49711 12.5941 6.49711 12.2017V10.5153V10.5023H6.49703ZM0 7.63816V5.45615C0 4.98121 0.179356 4.52573 0.498424 4.18985C0.817614 3.8541 1.25042 3.66536 1.70179 3.66536H4.77243V2.29198C4.77243 1.68417 5.00194 1.10122 5.41031 0.671367C5.8188 0.241514 6.37281 0 6.95051 0H10.0512C10.6289 0 11.1829 0.241507 11.5914 0.671367C11.9999 1.10123 12.2294 1.68421 12.2294 2.29198V3.66536H15.2982C15.7495 3.66536 16.1824 3.8541 16.5016 4.18985C16.8206 4.52573 17 4.98118 17 5.45615V7.63816C17.0004 7.7762 16.9554 7.91021 16.8728 8.01743C16.7903 8.12467 16.675 8.19876 16.5467 8.22709C13.8979 8.78875 11.202 9.06783 8.50019 9.06001C5.79814 9.06781 3.10234 8.78874 0.453698 8.22709C0.325357 8.19876 0.210112 8.12467 0.127613 8.01743C0.044976 7.9102 1.26298e-05 7.77619 0.000385768 7.63816H0ZM6.58746 3.6654H10.4124V2.29395C10.4124 2.19503 10.3751 2.10027 10.3087 2.03034C10.2422 1.96054 10.1522 1.92129 10.0583 1.92129H6.94874C6.75308 1.92129 6.59448 2.08805 6.59448 2.29394L6.58746 3.6654Z" fill="black"/>
</svg>
